<svg id="visual" viewBox="0 0 960 540" width="960" height="540" xmlns="http://www.w3.org/2000/svg" xmlns:xlink="http://www.w3.org/1999/xlink" version="1.1"><path d="M0 125L137 136L274 185L411 114L549 147L686 104L823 93L960 98L960 0L823 0L686 0L549 0L411 0L274 0L137 0L0 0Z" fill="#043c78"></path><path d="M0 174L137 212L274 249L411 195L549 233L686 163L823 125L960 185L960 96L823 91L686 102L549 145L411 112L274 183L137 134L0 123Z" fill="#013469"></path><path d="M0 266L137 266L274 287L411 293L549 341L686 228L823 239L960 249L960 183L823 123L686 161L549 231L411 193L274 247L137 210L0 172Z" fill="#002c5a"></path><path d="M0 460L137 401L274 390L411 492L549 498L686 422L823 455L960 411L960 247L823 237L686 226L549 339L411 291L274 285L137 264L0 264Z" fill="#00244b"></path><path d="M0 541L137 541L274 541L411 541L549 541L686 541L823 541L960 541L960 409L823 453L686 420L549 496L411 490L274 388L137 399L0 458Z" fill="#001d3d"></path></svg>