<?xml version="1.0" encoding="utf-8"?>
<!-- Generator: Adobe Illustrator 27.1.1, SVG Export Plug-In . SVG Version: 6.00 Build 0)  -->
<svg version="1.0" id="Layer_1" xmlns="http://www.w3.org/2000/svg" xmlns:xlink="http://www.w3.org/1999/xlink" x="0px" y="0px"
	 width="59.6px" height="22px" viewBox="0 0 39.8 11" style="enable-background:new 0 0 39.8 11;" xml:space="preserve">
<style type="text/css">
	.st0{fill:#FFD600;}
	.st1{fill:#000001;}
	.st2{fill:#FFFFFF;}
</style>
<g>
	<path class="st0" d="M29.2,9.9V0h10.6v9.9H29.2z"/>
	<path class="st1" d="M36.1,7.4C36.3,7.7,36.5,8,37,8c0.4,0,0.6-0.2,0.6-0.4c0-0.3-0.2-0.4-0.6-0.6l-0.2-0.1
		c-0.7-0.3-1.1-0.6-1.1-1.3c0-0.7,0.5-1.2,1.4-1.2c0.6,0,1,0.2,1.3,0.7l-0.7,0.4c-0.2-0.3-0.3-0.4-0.6-0.4c-0.3,0-0.5,0.2-0.5,0.4
		c0,0.3,0.2,0.4,0.6,0.5l0.2,0.1c0.8,0.3,1.3,0.7,1.3,1.4c0,0.8-0.7,1.2-1.6,1.2c-0.9,0-1.4-0.4-1.7-0.9L36.1,7.4z M32.7,7.4
		c0.1,0.2,0.4,0.4,0.7,0.4c0.3,0,0.5-0.1,0.5-0.6V4.4h1v3.1c0,0.9-0.6,1.3-1.4,1.3c-0.8,0-1.3-0.5-1.5-0.9L32.7,7.4z"/>
</g>
<path class="st2" d="M8.7,11V4.8H9v1c0,0,0.1-0.1,0.1-0.1c0.3-0.6,0.9-0.9,1.5-0.9c0.8,0,1.4,0.3,1.7,0.9c0.5,0.9,0.5,1.9,0.1,2.8
	c-0.3,0.8-1.2,1.1-2.1,1C9.8,9.4,9.3,9,9.1,8.5V11L8.7,11z M9,7l0.1,0.7C9.3,8.6,9.7,9,10.5,9.1c0.7,0.1,1.5-0.3,1.7-1
	c0.3-0.7,0.3-1.5-0.1-2.2c-0.3-0.6-0.9-1-1.6-0.9c-0.6,0-1.2,0.5-1.3,1.1C9.1,6.4,9.1,6.7,9,7L9,7z M19.6,7.9
	c-0.1,0.9-0.9,1.6-1.8,1.6c-1.4,0.1-2.1-0.9-2.2-1.9c-0.1-0.6,0-1.2,0.3-1.7c0.4-0.7,1.2-1.2,2-1.1c0.8,0.1,1.4,0.6,1.6,1.4
	c0.1,0.3,0.1,0.7,0.2,1H16c-0.1,1,0.5,1.8,1.2,1.9c0.9,0.2,1.7-0.2,2-1C19.3,7.8,19.4,7.8,19.6,7.9L19.6,7.9z M16,6.8h3.3
	c0-1-0.7-1.8-1.5-1.8C16.8,5,16.1,5.8,16,6.8z M20.3,7.9h0.3c0,0.5,0.3,0.9,0.8,1.1c0.6,0.2,1.2,0.2,1.7,0c0.3-0.1,0.5-0.4,0.5-0.8
	c0-0.3-0.2-0.6-0.5-0.7c-0.4-0.1-0.7-0.2-1.1-0.3c-0.4-0.1-0.7-0.2-1.1-0.4c-0.6-0.3-0.6-1.4,0-1.7c0.7-0.4,1.5-0.4,2.2,0
	c0.4,0.2,0.7,0.7,0.6,1.2h-0.3c0,0,0,0,0,0c0-0.9-0.8-1.2-1.6-1.1c-0.2,0-0.5,0.1-0.7,0.2c-0.3,0.1-0.4,0.4-0.4,0.7
	c0,0.3,0.2,0.5,0.5,0.6c0.3,0.1,0.7,0.2,1.1,0.3l0.9,0.2c0.4,0.1,0.7,0.5,0.7,0.9c0.1,0.5-0.2,0.9-0.6,1.1c-0.8,0.4-2,0.3-2.6-0.2
	C20.4,8.7,20.3,8.3,20.3,7.9L20.3,7.9z M27.9,6.2h-0.3c0,0,0-0.1,0-0.1c0-0.5-0.3-0.9-0.8-0.9C26.4,5,26,5,25.5,5.2
	C25.2,5.3,25,5.6,25,5.9c0,0.3,0.2,0.6,0.5,0.7L26.9,7c0.1,0,0.3,0.1,0.4,0.1c0.4,0.2,0.7,0.6,0.8,1c0,0.5-0.3,0.9-0.7,1.1
	c-0.6,0.3-1.4,0.3-2,0c-0.5-0.2-0.9-0.8-0.9-1.4h0.3c0.1,0.5,0.5,1,1,1.2c0.5,0.2,1.1,0.2,1.5-0.1c0.3-0.1,0.5-0.4,0.4-0.8
	c0-0.3-0.2-0.6-0.5-0.7c-0.4-0.1-0.7-0.2-1.1-0.3c-0.4-0.1-0.7-0.2-1.1-0.4c-0.6-0.3-0.6-1.4,0-1.7c0.7-0.4,1.5-0.4,2.3,0
	C27.8,5.2,28,5.7,27.9,6.2L27.9,6.2z M8.2,9.3c-0.2,0.1-0.5,0-0.6-0.2L6.3,7.5L6.2,7.2L4.8,9.1C4.7,9.3,4.4,9.4,4.2,9.3L6,7L4.3,4.8
	c0.2-0.1,0.5,0,0.6,0.2l1.2,1.6l1.2-1.6C7.5,4.9,7.8,4.8,8,4.9L7.4,5.7L6.5,6.8C6.4,6.9,6.4,7,6.5,7.1c0,0,0,0,0,0L8.2,9.3L8.2,9.3z
	 M15.6,4.8v0.3c-0.9-0.1-1.7,0.6-1.8,1.5c0,0.1,0,0.1,0,0.2c0,0.7,0,1.5,0,2.2v0.3h-0.3V4.8h0.3v0.9C14.3,5.1,14.9,4.8,15.6,4.8
	L15.6,4.8z M0,6.9l0.1-0.7c0.4-1.4,2-2,3.1-1.1C3.9,5.6,4,6.3,4,7.2H0.4C0.3,8.6,1.4,9.5,2.7,9c0.4-0.2,0.8-0.5,0.9-1
	C3.6,7.8,3.8,7.8,4,7.8C3.9,8.4,3.6,8.9,3.1,9.2C2.3,9.6,1.3,9.5,0.6,8.9C0.3,8.5,0.1,8.1,0,7.6c0-0.1,0-0.2,0-0.2
	C0,7.2,0,7.1,0,6.9L0,6.9z M0.4,6.8h3.3c0-1-0.7-1.8-1.6-1.8C1.1,5,0.4,5.8,0.4,6.8L0.4,6.8z"/>
</svg>
