<?xml version="1.0" encoding="utf-8"?>
<!-- Generator: Adobe Illustrator 27.1.1, SVG Export Plug-In . SVG Version: 6.00 Build 0)  -->
<svg version="1.0" id="Layer_1" xmlns="http://www.w3.org/2000/svg" xmlns:xlink="http://www.w3.org/1999/xlink" x="0px" y="0px"
	 width="30px" height="30px" viewBox="0 0 30 30" style="enable-background:new 0 0 30 30;" xml:space="preserve">
<style type="text/css">
	.st0{fill:#E44D26;}
	.st1{fill:#F16529;}
	.st2{fill:#EBEBEB;}
	.st3{fill:#FFFFFF;}
</style>
<g>
	<polygon class="st0" points="6.9,23.9 5.2,3.8 24.8,3.8 23.1,23.9 15,26.2 	"/>
	<polygon class="st1" points="15,24.5 21.5,22.7 23,5.5 15,5.5 	"/>
	<polygon class="st2" points="15,12.9 11.7,12.9 11.5,10.4 15,10.4 15,7.9 15,7.9 8.8,7.9 8.9,8.6 9.5,15.4 15,15.4 	"/>
	<polygon class="st2" points="15,19.3 15,19.3 12.2,18.6 12.1,16.6 10.7,16.6 9.6,16.6 9.9,20.5 15,21.9 15,21.9 	"/>
	<polygon class="st3" points="15,12.9 15,15.4 18,15.4 17.7,18.6 15,19.3 15,21.9 20,20.5 20.1,20.1 20.7,13.6 20.7,12.9 20.1,12.9 
			"/>
	<polygon class="st3" points="15,7.9 15,9.5 15,10.4 15,10.4 20.9,10.4 20.9,10.4 20.9,10.4 21,9.9 21.1,8.6 21.2,7.9 	"/>
</g>
</svg>
