<?xml version="1.0" encoding="utf-8"?>
<!-- Generator: Adobe Illustrator 27.1.1, SVG Export Plug-In . SVG Version: 6.00 Build 0)  -->
<svg version="1.0" id="Layer_1" xmlns="http://www.w3.org/2000/svg" xmlns:xlink="http://www.w3.org/1999/xlink" x="0px" y="0px"
	 width="30px" height="30px" viewBox="0 0 30 30" style="enable-background:new 0 0 30 30;" xml:space="preserve">
<style type="text/css">
	.st0{fill:#599636;}
	.st1{fill:#6CAC48;}
	.st2{fill:#C2BFBF;}
</style>
<g>
	<path class="st0" d="M14.9,3.9L15.5,5c0.1,0.2,0.3,0.4,0.5,0.6c0.5,0.5,1,1,1.4,1.6c1,1.3,1.7,2.8,2.2,4.4c0.3,1,0.5,2,0.5,3
		c0,3-1,5.6-3.1,7.8c-0.3,0.3-0.7,0.7-1.1,0.9c-0.2,0-0.3-0.2-0.4-0.3c-0.2-0.3-0.3-0.6-0.3-0.9c-0.1-0.4-0.1-0.7-0.1-1.1v-0.2
		C15,20.7,14.9,4,14.9,3.9L14.9,3.9z"/>
	<path class="st1" d="M14.9,3.8C14.9,3.8,14.9,3.8,14.9,3.8c-0.1,0.3-0.1,0.5-0.3,0.7c-0.1,0.2-0.3,0.4-0.5,0.5
		C13,6,12.2,7.1,11.5,8.4c-0.9,1.7-1.4,3.5-1.5,5.5c-0.1,0.7,0.2,3.1,0.4,3.9c0.6,1.9,1.7,3.5,3.1,4.8c0.3,0.3,0.7,0.6,1.1,0.9
		c0.1,0,0.1-0.1,0.1-0.2c0-0.2,0.1-0.3,0.1-0.5l0.2-1.8L14.9,3.8z"/>
	<path class="st2" d="M15.5,24c0-0.3,0.2-0.5,0.3-0.7c-0.1-0.1-0.3-0.2-0.3-0.3c-0.1-0.1-0.1-0.3-0.2-0.4c-0.2-0.5-0.2-1-0.3-1.6
		v-0.3c-0.1,0-0.1,0.5-0.1,0.5c0,0.6-0.1,1.1-0.2,1.6c0,0.2-0.1,0.4-0.2,0.6c0,0,0,0,0,0.1c0.2,0.6,0.3,1.3,0.3,2v0.2
		c0,0.3,0,0.2,0.2,0.3c0.1,0,0.2,0,0.3,0.1c0.1,0,0.1-0.1,0.1-0.1l0-0.4v-1.1C15.5,24.4,15.5,24.2,15.5,24L15.5,24z"/>
</g>
</svg>
