<?xml version="1.0" encoding="utf-8"?>
<!-- Generator: Adobe Illustrator 27.1.1, SVG Export Plug-In . SVG Version: 6.00 Build 0)  -->
<svg version="1.0" id="Layer_1" xmlns="http://www.w3.org/2000/svg" xmlns:xlink="http://www.w3.org/1999/xlink" x="0px" y="0px"
	 width="30px" height="30px" viewBox="0 0 500 500" style="enable-background:new 0 0 500 500;" xml:space="preserve">
<style type="text/css">
	.st0{fill:#e3d5ca;}
</style>
<g>
	<path class="st0" d="M469.1,40.4H131.5C70,40.4,20.2,90.2,20.2,151.7v297.2c0,5.9,4.8,10.7,10.7,10.7h337.6
		c61.5,0,111.3-49.8,111.3-111.3V51.1C479.8,45.2,475,40.4,469.1,40.4z M389.8,350.1l20.6,21.4h0c0.1,0.1,0.2,0.2,0.2,0.2
		c0.4,0.3,0.9,0.6,1.5,0.6h12.6v10.2H384v-10.2h6.7c1.2,0,2.2-1,2.2-2.2c0-0.5-0.2-1-0.4-1.3c-0.1-0.1-0.2-0.2-0.3-0.3
		c-17.4-19-89.6-98-89.6-98l-5.1-5.1v-5.1h45.9c33.7,0,61.1-29.3,61.1-65.9s-27.4-66.5-61.1-66.5h-54.9c-2.3,0.9-4.8,1.8-6.6,3.6
		c-1.7,1.7-2.8,4.1-2.8,6.5v244.6H156.7c-45,0-81.5-34.6-81.5-76.7s36.5-76.1,81.5-76.1h26.4l-72.9-79.7l-20.6-21.4h0
		c-0.1-0.1-0.2-0.2-0.2-0.3c-0.4-0.3-0.9-0.6-1.5-0.6H75.3v-10.2H116v10.2h-6.7c-1.2,0-2.2,1-2.2,2.2c0,0.5,0.2,1,0.4,1.3
		c0,0,0,0,0,0c0.1,0.1,0.2,0.2,0.3,0.3c17.4,19,89.6,98,89.6,98l5.1,5.1v5.1h-45.9c-33.7,0-61.1,29.3-61.1,65.9
		c0,36.5,27.4,66.5,61.1,66.5l55,0c2.3-0.9,4.8-1.8,6.6-3.6c1.7-1.7,2.8-4.1,2.8-6.5V117.6h122.3c45,0,81.5,34.6,81.5,76.7
		c0,42.2-36.5,76.1-81.5,76.1h-26.4L389.8,350.1z"/>
	<path class="st0" d="M252.9,130.8c-2.3-1.2-4.8-1.9-7.4-2.4c-1.3-0.2-2.6-0.4-4-0.5c-0.1,0-0.1,0-0.2,0v234.3c0,3.3,3,5.7,5.7,7
		c2.3,1.2,4.8,1.9,7.4,2.4c1.3,0.2,2.6,0.4,4,0.5c0.1,0,0.1,0,0.2,0V137.9C258.6,134.6,255.6,132.2,252.9,130.8z"/>
</g>
</svg>
