          <svg xmlns="http://www.w3.org/2000/svg" viewBox="0 0 369.45 319.43">
            <path
              class="cls-1"
              d="m54.06,143.97v.05l.03-.05h-.03Zm0,0v.05l.03-.05h-.03Z"
            />
            <path
              class="cls-1"
              d="m308.4,54.15l-17.63-30.48-13.69-23.67H92.37l-13.69,23.67-17.63,30.48L0,159.72l61.05,105.55,17.63,30.49,13.69,23.67h184.71l13.69-23.67,17.63-30.49,61.05-105.55-61.05-105.57Zm-58.91-29.15l-.93,1.36-63.8,93.32L120.95,26.36l-.93-1.36h129.47Zm-64.58,148.47l30.95,45.26h-62.21l30.95-45.26.16-.23.15.23Zm-97.27,87.83l-58.76-101.58,61.06-105.57h.53v89.82h-36.38l-.03.05-9.08,15.7,8.53,14.74h67.44v-94.08l45.19,66.09-49.4,72.26-5.4,7.9-23.7,34.67Zm175.02,33.13H106.8l-2.25-3.89,28.26-41.33h103.89l28.23,41.29-2.27,3.93Zm19.19-33.17l-23.73-34.71-5.35-7.82-49.4-72.26,45.19-66.09v94.08h50.81s16.66.01,16.66.01l8.52-14.74-9.1-15.73v-.03h-36.41V54.15h.48l61.05,105.57-58.72,101.54Z"
            />
          </svg>